<mxfile host="app.diagrams.net" modified="2023-11-09T23:11:35.395Z" agent="Mozilla/5.0 (Windows NT 10.0; Win64; x64) AppleWebKit/537.36 (KHTML, like Gecko) Chrome/116.0.0.0 Safari/537.36 OPR/102.0.0.0" etag="yf1hUHhDCTpku1-8SE01" version="22.1.0" type="device">
  <diagram name="PÃ¡gina-1" id="ue63K10CFJ6aUtLxXUdk">
    <mxGraphModel dx="839" dy="464" grid="1" gridSize="10" guides="1" tooltips="1" connect="1" arrows="1" fold="1" page="1" pageScale="1" pageWidth="827" pageHeight="1169" math="0" shadow="0">
      <root>
        <mxCell id="0" />
        <mxCell id="1" parent="0" />
        <mxCell id="Yjbcp0f1BBSYqEVXcpDD-9" style="edgeStyle=orthogonalEdgeStyle;rounded=0;orthogonalLoop=1;jettySize=auto;html=1;" parent="1" source="Yjbcp0f1BBSYqEVXcpDD-1" target="Yjbcp0f1BBSYqEVXcpDD-4" edge="1">
          <mxGeometry relative="1" as="geometry" />
        </mxCell>
        <mxCell id="Yjbcp0f1BBSYqEVXcpDD-1" value="LINHA_DA_MATRIZ = 2, COLUNA_DA_MATRIZ= 3&lt;br&gt;linhaDoVetorPar = 0, linhaDoVetorimpar = 0" style="rounded=1;whiteSpace=wrap;html=1;" parent="1" vertex="1">
          <mxGeometry x="264.5" y="100" width="286" height="60" as="geometry" />
        </mxCell>
        <mxCell id="Yjbcp0f1BBSYqEVXcpDD-3" style="edgeStyle=orthogonalEdgeStyle;rounded=0;orthogonalLoop=1;jettySize=auto;html=1;" parent="1" source="Yjbcp0f1BBSYqEVXcpDD-2" target="Yjbcp0f1BBSYqEVXcpDD-1" edge="1">
          <mxGeometry relative="1" as="geometry" />
        </mxCell>
        <mxCell id="Yjbcp0f1BBSYqEVXcpDD-2" value="Inicio" style="ellipse;whiteSpace=wrap;html=1;" parent="1" vertex="1">
          <mxGeometry x="347.5" y="20" width="120" height="50" as="geometry" />
        </mxCell>
        <mxCell id="Yjbcp0f1BBSYqEVXcpDD-8" style="edgeStyle=orthogonalEdgeStyle;rounded=0;orthogonalLoop=1;jettySize=auto;html=1;" parent="1" source="Yjbcp0f1BBSYqEVXcpDD-4" target="Yjbcp0f1BBSYqEVXcpDD-7" edge="1">
          <mxGeometry relative="1" as="geometry" />
        </mxCell>
        <mxCell id="Yjbcp0f1BBSYqEVXcpDD-4" value="&amp;nbsp; &amp;nbsp; &amp;nbsp; &amp;nbsp; &quot;Entre com o valores da Matriz[&quot;,LINHA_DA_MATRIZ, &quot;][&quot;, COLUNA_DA_MATRIZ,&quot;]&quot;" style="shape=display;whiteSpace=wrap;html=1;" parent="1" vertex="1">
          <mxGeometry x="222.5" y="190" width="370" height="40" as="geometry" />
        </mxCell>
        <mxCell id="Yjbcp0f1BBSYqEVXcpDD-13" style="edgeStyle=orthogonalEdgeStyle;rounded=0;orthogonalLoop=1;jettySize=auto;html=1;" parent="1" source="Yjbcp0f1BBSYqEVXcpDD-7" target="Yjbcp0f1BBSYqEVXcpDD-10" edge="1">
          <mxGeometry relative="1" as="geometry" />
        </mxCell>
        <mxCell id="Yjbcp0f1BBSYqEVXcpDD-21" style="edgeStyle=none;rounded=0;orthogonalLoop=1;jettySize=auto;html=1;" parent="1" source="Yjbcp0f1BBSYqEVXcpDD-7" edge="1">
          <mxGeometry relative="1" as="geometry">
            <mxPoint x="389" y="590" as="targetPoint" />
            <Array as="points">
              <mxPoint x="599" y="280" />
              <mxPoint x="599" y="570" />
              <mxPoint x="389" y="570" />
            </Array>
          </mxGeometry>
        </mxCell>
        <mxCell id="Yjbcp0f1BBSYqEVXcpDD-7" value="linhaDaMatriz = 1, 2" style="shape=hexagon;perimeter=hexagonPerimeter2;whiteSpace=wrap;html=1;fixedSize=1;" parent="1" vertex="1">
          <mxGeometry x="321.75" y="260" width="171.5" height="40" as="geometry" />
        </mxCell>
        <mxCell id="Yjbcp0f1BBSYqEVXcpDD-14" style="edgeStyle=orthogonalEdgeStyle;rounded=0;orthogonalLoop=1;jettySize=auto;html=1;" parent="1" source="Yjbcp0f1BBSYqEVXcpDD-10" target="Yjbcp0f1BBSYqEVXcpDD-12" edge="1">
          <mxGeometry relative="1" as="geometry" />
        </mxCell>
        <mxCell id="Yjbcp0f1BBSYqEVXcpDD-10" value="&quot;Entre com os valores da linha &quot;, linhaDaMatriz+1,&quot; da Matriz&quot;" style="shape=display;whiteSpace=wrap;html=1;" parent="1" vertex="1">
          <mxGeometry x="292.5" y="320" width="230" height="50" as="geometry" />
        </mxCell>
        <mxCell id="Yjbcp0f1BBSYqEVXcpDD-12" value="colunaDaMatriz=1, 3" style="shape=hexagon;perimeter=hexagonPerimeter2;whiteSpace=wrap;html=1;fixedSize=1;" parent="1" vertex="1">
          <mxGeometry x="321.75" y="400" width="171.5" height="40" as="geometry" />
        </mxCell>
        <mxCell id="Yjbcp0f1BBSYqEVXcpDD-18" style="edgeStyle=orthogonalEdgeStyle;rounded=0;orthogonalLoop=1;jettySize=auto;html=1;" parent="1" source="Yjbcp0f1BBSYqEVXcpDD-15" edge="1">
          <mxGeometry relative="1" as="geometry">
            <mxPoint x="319" y="420" as="targetPoint" />
            <Array as="points">
              <mxPoint x="239" y="490" />
              <mxPoint x="239" y="420" />
              <mxPoint x="299" y="420" />
            </Array>
          </mxGeometry>
        </mxCell>
        <mxCell id="Yjbcp0f1BBSYqEVXcpDD-20" style="edgeStyle=none;rounded=0;orthogonalLoop=1;jettySize=auto;html=1;" parent="1" edge="1">
          <mxGeometry relative="1" as="geometry">
            <mxPoint x="319" y="280" as="targetPoint" />
            <mxPoint x="499" y="420" as="sourcePoint" />
            <Array as="points">
              <mxPoint x="539" y="420" />
              <mxPoint x="539" y="490" />
              <mxPoint x="539" y="550" />
              <mxPoint x="189" y="550" />
              <mxPoint x="189" y="280" />
            </Array>
          </mxGeometry>
        </mxCell>
        <mxCell id="Yjbcp0f1BBSYqEVXcpDD-15" value="&lt;br&gt;&lt;br&gt;matrizImparPar[linhaDaMatriz][colunaDaMatriz]" style="shape=manualInput;whiteSpace=wrap;html=1;" parent="1" vertex="1">
          <mxGeometry x="326.75" y="460" width="162.25" height="60" as="geometry" />
        </mxCell>
        <mxCell id="Yjbcp0f1BBSYqEVXcpDD-16" style="edgeStyle=orthogonalEdgeStyle;rounded=0;orthogonalLoop=1;jettySize=auto;html=1;entryX=0.497;entryY=0.283;entryDx=0;entryDy=0;entryPerimeter=0;" parent="1" source="Yjbcp0f1BBSYqEVXcpDD-12" target="Yjbcp0f1BBSYqEVXcpDD-15" edge="1">
          <mxGeometry relative="1" as="geometry" />
        </mxCell>
        <mxCell id="Yjbcp0f1BBSYqEVXcpDD-24" style="edgeStyle=none;rounded=0;orthogonalLoop=1;jettySize=auto;html=1;" parent="1" source="Yjbcp0f1BBSYqEVXcpDD-22" target="Yjbcp0f1BBSYqEVXcpDD-23" edge="1">
          <mxGeometry relative="1" as="geometry" />
        </mxCell>
        <mxCell id="Yjbcp0f1BBSYqEVXcpDD-42" style="edgeStyle=none;rounded=0;orthogonalLoop=1;jettySize=auto;html=1;" parent="1" source="Yjbcp0f1BBSYqEVXcpDD-22" edge="1">
          <mxGeometry relative="1" as="geometry">
            <mxPoint x="380" y="1200" as="targetPoint" />
            <Array as="points">
              <mxPoint x="720" y="610" />
              <mxPoint x="720" y="1160" />
              <mxPoint x="380" y="1160" />
            </Array>
          </mxGeometry>
        </mxCell>
        <mxCell id="Yjbcp0f1BBSYqEVXcpDD-22" value="linhaDaMatriz=1, 2" style="shape=hexagon;perimeter=hexagonPerimeter2;whiteSpace=wrap;html=1;fixedSize=1;" parent="1" vertex="1">
          <mxGeometry x="309" y="590" width="171.5" height="40" as="geometry" />
        </mxCell>
        <mxCell id="Yjbcp0f1BBSYqEVXcpDD-26" style="edgeStyle=none;rounded=0;orthogonalLoop=1;jettySize=auto;html=1;" parent="1" source="Yjbcp0f1BBSYqEVXcpDD-23" target="Yjbcp0f1BBSYqEVXcpDD-25" edge="1">
          <mxGeometry relative="1" as="geometry" />
        </mxCell>
        <mxCell id="Yjbcp0f1BBSYqEVXcpDD-41" style="edgeStyle=none;rounded=0;orthogonalLoop=1;jettySize=auto;html=1;entryX=0;entryY=0.5;entryDx=0;entryDy=0;" parent="1" source="Yjbcp0f1BBSYqEVXcpDD-23" target="Yjbcp0f1BBSYqEVXcpDD-22" edge="1">
          <mxGeometry relative="1" as="geometry">
            <mxPoint x="80" y="600" as="targetPoint" />
            <Array as="points">
              <mxPoint x="680" y="670" />
              <mxPoint x="680" y="1120" />
              <mxPoint x="40" y="1120" />
              <mxPoint x="40" y="610" />
            </Array>
          </mxGeometry>
        </mxCell>
        <mxCell id="Yjbcp0f1BBSYqEVXcpDD-23" value="colunaDaMatriz=1, 3" style="shape=hexagon;perimeter=hexagonPerimeter2;whiteSpace=wrap;html=1;fixedSize=1;" parent="1" vertex="1">
          <mxGeometry x="309" y="650" width="171.5" height="40" as="geometry" />
        </mxCell>
        <mxCell id="Yjbcp0f1BBSYqEVXcpDD-28" style="edgeStyle=none;rounded=0;orthogonalLoop=1;jettySize=auto;html=1;" parent="1" source="Yjbcp0f1BBSYqEVXcpDD-25" target="Yjbcp0f1BBSYqEVXcpDD-27" edge="1">
          <mxGeometry relative="1" as="geometry" />
        </mxCell>
        <mxCell id="Yjbcp0f1BBSYqEVXcpDD-25" value="&lt;div&gt;&lt;br&gt;&lt;/div&gt;&lt;div&gt;resultadoImparPar = matrizImparPar[linhaDaMatriz][colunaDaMatriz]%2&lt;span style=&quot;&quot;&gt;&lt;/span&gt;&lt;/div&gt;" style="rounded=1;whiteSpace=wrap;html=1;" parent="1" vertex="1">
          <mxGeometry x="182.63" y="720" width="424.25" height="60" as="geometry" />
        </mxCell>
        <mxCell id="Yjbcp0f1BBSYqEVXcpDD-32" style="edgeStyle=none;rounded=0;orthogonalLoop=1;jettySize=auto;html=1;entryX=0.5;entryY=0;entryDx=0;entryDy=0;" parent="1" source="Yjbcp0f1BBSYqEVXcpDD-27" target="Yjbcp0f1BBSYqEVXcpDD-30" edge="1">
          <mxGeometry relative="1" as="geometry">
            <Array as="points">
              <mxPoint x="554" y="850" />
            </Array>
          </mxGeometry>
        </mxCell>
        <mxCell id="Yjbcp0f1BBSYqEVXcpDD-27" value="resultadoImparPar==0" style="rhombus;whiteSpace=wrap;html=1;" parent="1" vertex="1">
          <mxGeometry x="319" y="810" width="144.25" height="80" as="geometry" />
        </mxCell>
        <mxCell id="Yjbcp0f1BBSYqEVXcpDD-37" style="edgeStyle=none;rounded=0;orthogonalLoop=1;jettySize=auto;html=1;entryX=0;entryY=0.5;entryDx=0;entryDy=0;" parent="1" source="Yjbcp0f1BBSYqEVXcpDD-29" target="Yjbcp0f1BBSYqEVXcpDD-35" edge="1">
          <mxGeometry relative="1" as="geometry">
            <Array as="points">
              <mxPoint x="262" y="1059" />
            </Array>
          </mxGeometry>
        </mxCell>
        <mxCell id="Yjbcp0f1BBSYqEVXcpDD-29" value="&lt;div&gt;valoresVetorPares[linhaDoVetorPar]= matrizImparPar[linhaDaMatriz][colunaDaMatriz]&lt;/div&gt;&lt;div&gt;linhaDoVetorPar+=1&lt;span style=&quot;&quot;&gt;&lt;/span&gt;&lt;/div&gt;" style="rounded=1;whiteSpace=wrap;html=1;" parent="1" vertex="1">
          <mxGeometry x="159" y="900" width="206.5" height="90" as="geometry" />
        </mxCell>
        <mxCell id="Yjbcp0f1BBSYqEVXcpDD-38" style="edgeStyle=none;rounded=0;orthogonalLoop=1;jettySize=auto;html=1;entryX=1;entryY=0.5;entryDx=0;entryDy=0;" parent="1" source="Yjbcp0f1BBSYqEVXcpDD-30" target="Yjbcp0f1BBSYqEVXcpDD-35" edge="1">
          <mxGeometry relative="1" as="geometry">
            <Array as="points">
              <mxPoint x="554" y="1059" />
            </Array>
          </mxGeometry>
        </mxCell>
        <mxCell id="Yjbcp0f1BBSYqEVXcpDD-30" value="valoresvetorImpares[linhaDoVetorimpar] = matrizImparPar[linhaDaMatriz][colunaDaMatriz]&#xa;Â Â Â Â Â Â Â Â Â Â Â Â Â Â Â Â Â Â Â Â linhaDoVetorimpar+=1" style="rounded=1;whiteSpace=wrap;html=1;" parent="1" vertex="1">
          <mxGeometry x="439" y="900" width="230" height="90" as="geometry" />
        </mxCell>
        <mxCell id="Yjbcp0f1BBSYqEVXcpDD-31" style="edgeStyle=none;rounded=0;orthogonalLoop=1;jettySize=auto;html=1;entryX=0.346;entryY=0.033;entryDx=0;entryDy=0;entryPerimeter=0;" parent="1" source="Yjbcp0f1BBSYqEVXcpDD-27" target="Yjbcp0f1BBSYqEVXcpDD-29" edge="1">
          <mxGeometry relative="1" as="geometry">
            <Array as="points">
              <mxPoint x="229" y="850" />
            </Array>
          </mxGeometry>
        </mxCell>
        <mxCell id="Yjbcp0f1BBSYqEVXcpDD-33" value="V" style="text;html=1;align=center;verticalAlign=middle;resizable=0;points=[];autosize=1;strokeColor=none;fillColor=none;" parent="1" vertex="1">
          <mxGeometry x="254" y="808" width="30" height="30" as="geometry" />
        </mxCell>
        <mxCell id="Yjbcp0f1BBSYqEVXcpDD-34" value="F" style="text;html=1;align=center;verticalAlign=middle;resizable=0;points=[];autosize=1;strokeColor=none;fillColor=none;" parent="1" vertex="1">
          <mxGeometry x="484" y="808" width="30" height="30" as="geometry" />
        </mxCell>
        <mxCell id="Yjbcp0f1BBSYqEVXcpDD-40" style="edgeStyle=none;rounded=0;orthogonalLoop=1;jettySize=auto;html=1;entryX=0;entryY=0.5;entryDx=0;entryDy=0;" parent="1" source="Yjbcp0f1BBSYqEVXcpDD-35" target="Yjbcp0f1BBSYqEVXcpDD-23" edge="1">
          <mxGeometry relative="1" as="geometry">
            <mxPoint x="130" y="670" as="targetPoint" />
            <Array as="points">
              <mxPoint x="390" y="1100" />
              <mxPoint x="80" y="1100" />
              <mxPoint x="80" y="670" />
            </Array>
          </mxGeometry>
        </mxCell>
        <mxCell id="Yjbcp0f1BBSYqEVXcpDD-35" value="" style="ellipse;whiteSpace=wrap;html=1;aspect=fixed;" parent="1" vertex="1">
          <mxGeometry x="371.88" y="1040" width="38.5" height="38.5" as="geometry" />
        </mxCell>
        <mxCell id="Yjbcp0f1BBSYqEVXcpDD-63" style="edgeStyle=none;rounded=0;orthogonalLoop=1;jettySize=auto;html=1;exitX=1;exitY=0.5;exitDx=0;exitDy=0;" parent="1" source="Yjbcp0f1BBSYqEVXcpDD-43" edge="1">
          <mxGeometry relative="1" as="geometry">
            <mxPoint x="400" y="1810" as="targetPoint" />
            <Array as="points">
              <mxPoint x="720" y="1210" />
              <mxPoint x="720" y="1760" />
              <mxPoint x="400" y="1760" />
            </Array>
          </mxGeometry>
        </mxCell>
        <mxCell id="Yjbcp0f1BBSYqEVXcpDD-43" value="i = 1, 6, 1" style="shape=hexagon;perimeter=hexagonPerimeter2;whiteSpace=wrap;html=1;fixedSize=1;" parent="1" vertex="1">
          <mxGeometry x="290" y="1200" width="190.5" height="20" as="geometry" />
        </mxCell>
        <mxCell id="Yjbcp0f1BBSYqEVXcpDD-47" style="edgeStyle=none;rounded=0;orthogonalLoop=1;jettySize=auto;html=1;" parent="1" source="Yjbcp0f1BBSYqEVXcpDD-44" target="Yjbcp0f1BBSYqEVXcpDD-46" edge="1">
          <mxGeometry relative="1" as="geometry" />
        </mxCell>
        <mxCell id="Yjbcp0f1BBSYqEVXcpDD-44" value="indice_min = i" style="rounded=1;whiteSpace=wrap;html=1;" parent="1" vertex="1">
          <mxGeometry x="345.75" y="1250" width="93.25" height="30" as="geometry" />
        </mxCell>
        <mxCell id="Yjbcp0f1BBSYqEVXcpDD-45" style="edgeStyle=none;rounded=0;orthogonalLoop=1;jettySize=auto;html=1;entryX=0.396;entryY=-0.043;entryDx=0;entryDy=0;entryPerimeter=0;" parent="1" source="Yjbcp0f1BBSYqEVXcpDD-43" target="Yjbcp0f1BBSYqEVXcpDD-44" edge="1">
          <mxGeometry relative="1" as="geometry" />
        </mxCell>
        <mxCell id="Yjbcp0f1BBSYqEVXcpDD-49" style="edgeStyle=none;rounded=0;orthogonalLoop=1;jettySize=auto;html=1;" parent="1" source="Yjbcp0f1BBSYqEVXcpDD-46" target="Yjbcp0f1BBSYqEVXcpDD-48" edge="1">
          <mxGeometry relative="1" as="geometry" />
        </mxCell>
        <mxCell id="Yjbcp0f1BBSYqEVXcpDD-59" style="edgeStyle=none;rounded=0;orthogonalLoop=1;jettySize=auto;html=1;" parent="1" source="Yjbcp0f1BBSYqEVXcpDD-46" edge="1">
          <mxGeometry relative="1" as="geometry">
            <mxPoint x="400" y="1640" as="targetPoint" />
            <Array as="points">
              <mxPoint x="640" y="1320" />
              <mxPoint x="640" y="1610" />
              <mxPoint x="400" y="1610" />
            </Array>
          </mxGeometry>
        </mxCell>
        <mxCell id="Yjbcp0f1BBSYqEVXcpDD-46" value="J = 1, 6" style="shape=hexagon;perimeter=hexagonPerimeter2;whiteSpace=wrap;html=1;fixedSize=1;" parent="1" vertex="1">
          <mxGeometry x="295.88" y="1310" width="194.12" height="20" as="geometry" />
        </mxCell>
        <mxCell id="Yjbcp0f1BBSYqEVXcpDD-52" style="edgeStyle=none;rounded=0;orthogonalLoop=1;jettySize=auto;html=1;exitX=1;exitY=0.5;exitDx=0;exitDy=0;entryX=0.5;entryY=0;entryDx=0;entryDy=0;" parent="1" source="Yjbcp0f1BBSYqEVXcpDD-48" target="Yjbcp0f1BBSYqEVXcpDD-50" edge="1">
          <mxGeometry relative="1" as="geometry">
            <Array as="points">
              <mxPoint x="560" y="1400" />
            </Array>
          </mxGeometry>
        </mxCell>
        <mxCell id="Yjbcp0f1BBSYqEVXcpDD-54" style="edgeStyle=none;rounded=0;orthogonalLoop=1;jettySize=auto;html=1;entryX=0;entryY=0.5;entryDx=0;entryDy=0;" parent="1" source="Yjbcp0f1BBSYqEVXcpDD-48" target="Yjbcp0f1BBSYqEVXcpDD-53" edge="1">
          <mxGeometry relative="1" as="geometry">
            <Array as="points">
              <mxPoint x="240" y="1400" />
              <mxPoint x="240" y="1545" />
            </Array>
          </mxGeometry>
        </mxCell>
        <mxCell id="Yjbcp0f1BBSYqEVXcpDD-48" value="valoresVetorPares[j] &amp;lt; valoresVetorPares[indice_min]" style="rhombus;whiteSpace=wrap;html=1;" parent="1" vertex="1">
          <mxGeometry x="276.69" y="1350" width="228.87" height="100" as="geometry" />
        </mxCell>
        <mxCell id="Yjbcp0f1BBSYqEVXcpDD-55" style="edgeStyle=none;rounded=0;orthogonalLoop=1;jettySize=auto;html=1;entryX=1;entryY=0.5;entryDx=0;entryDy=0;" parent="1" source="Yjbcp0f1BBSYqEVXcpDD-50" target="Yjbcp0f1BBSYqEVXcpDD-53" edge="1">
          <mxGeometry relative="1" as="geometry">
            <Array as="points">
              <mxPoint x="560" y="1545" />
            </Array>
          </mxGeometry>
        </mxCell>
        <mxCell id="Yjbcp0f1BBSYqEVXcpDD-50" value="indice_min = j" style="rounded=1;whiteSpace=wrap;html=1;" parent="1" vertex="1">
          <mxGeometry x="505.56" y="1460" width="105.25" height="40" as="geometry" />
        </mxCell>
        <mxCell id="Yjbcp0f1BBSYqEVXcpDD-56" style="edgeStyle=none;rounded=0;orthogonalLoop=1;jettySize=auto;html=1;" parent="1" source="Yjbcp0f1BBSYqEVXcpDD-53" edge="1">
          <mxGeometry relative="1" as="geometry">
            <mxPoint x="290" y="1320" as="targetPoint" />
            <Array as="points">
              <mxPoint x="400" y="1600" />
              <mxPoint x="200" y="1600" />
              <mxPoint x="200" y="1320" />
            </Array>
          </mxGeometry>
        </mxCell>
        <mxCell id="Yjbcp0f1BBSYqEVXcpDD-53" value="" style="ellipse;whiteSpace=wrap;html=1;aspect=fixed;" parent="1" vertex="1">
          <mxGeometry x="384" y="1530" width="30" height="30" as="geometry" />
        </mxCell>
        <mxCell id="Yjbcp0f1BBSYqEVXcpDD-62" style="edgeStyle=none;rounded=0;orthogonalLoop=1;jettySize=auto;html=1;entryX=0;entryY=0.5;entryDx=0;entryDy=0;" parent="1" source="Yjbcp0f1BBSYqEVXcpDD-61" target="Yjbcp0f1BBSYqEVXcpDD-43" edge="1">
          <mxGeometry relative="1" as="geometry">
            <mxPoint x="200" y="1210" as="targetPoint" />
            <Array as="points">
              <mxPoint x="400" y="1750" />
              <mxPoint x="120" y="1750" />
              <mxPoint x="120" y="1210" />
            </Array>
          </mxGeometry>
        </mxCell>
        <mxCell id="Yjbcp0f1BBSYqEVXcpDD-61" value="&lt;div&gt;&amp;nbsp;troca = valoresVetorPares[i]&lt;/div&gt;&lt;div&gt;&amp;nbsp; &amp;nbsp; &amp;nbsp; &amp;nbsp; valoresVetorPares[i] = valoresVetorPares[indice_min]&lt;span style=&quot;&quot;&gt;&lt;/span&gt;&lt;/div&gt;&lt;div&gt;&lt;span style=&quot;&quot;&gt;&lt;span style=&quot;&quot;&gt;&lt;span style=&quot;white-space: pre;&quot;&gt;&amp;nbsp;&amp;nbsp;&amp;nbsp;&amp;nbsp;&lt;/span&gt;&lt;/span&gt;&amp;nbsp; &amp;nbsp; &amp;nbsp; &amp;nbsp; valoresVetorPares[indice_min] = troca&lt;/span&gt;&lt;/div&gt;" style="rounded=1;whiteSpace=wrap;html=1;" parent="1" vertex="1">
          <mxGeometry x="241.38" y="1640" width="306.75" height="60" as="geometry" />
        </mxCell>
        <mxCell id="Yjbcp0f1BBSYqEVXcpDD-84" style="edgeStyle=none;rounded=0;orthogonalLoop=1;jettySize=auto;html=1;" parent="1" source="Yjbcp0f1BBSYqEVXcpDD-64" edge="1">
          <mxGeometry relative="1" as="geometry">
            <mxPoint x="410" y="2410" as="targetPoint" />
            <Array as="points">
              <mxPoint x="710" y="1820" />
              <mxPoint x="700" y="2370" />
              <mxPoint x="410" y="2370" />
            </Array>
          </mxGeometry>
        </mxCell>
        <mxCell id="Yjbcp0f1BBSYqEVXcpDD-64" value="i = 1, 6" style="shape=hexagon;perimeter=hexagonPerimeter2;whiteSpace=wrap;html=1;fixedSize=1;" parent="1" vertex="1">
          <mxGeometry x="304.76" y="1810" width="190.5" height="20" as="geometry" />
        </mxCell>
        <mxCell id="Yjbcp0f1BBSYqEVXcpDD-65" style="edgeStyle=none;rounded=0;orthogonalLoop=1;jettySize=auto;html=1;" parent="1" source="Yjbcp0f1BBSYqEVXcpDD-66" target="Yjbcp0f1BBSYqEVXcpDD-70" edge="1">
          <mxGeometry relative="1" as="geometry" />
        </mxCell>
        <mxCell id="Yjbcp0f1BBSYqEVXcpDD-66" value="indice_min = i" style="rounded=1;whiteSpace=wrap;html=1;" parent="1" vertex="1">
          <mxGeometry x="360.51" y="1860" width="93.25" height="30" as="geometry" />
        </mxCell>
        <mxCell id="Yjbcp0f1BBSYqEVXcpDD-67" style="edgeStyle=none;rounded=0;orthogonalLoop=1;jettySize=auto;html=1;entryX=0.396;entryY=-0.043;entryDx=0;entryDy=0;entryPerimeter=0;" parent="1" source="Yjbcp0f1BBSYqEVXcpDD-64" target="Yjbcp0f1BBSYqEVXcpDD-66" edge="1">
          <mxGeometry relative="1" as="geometry" />
        </mxCell>
        <mxCell id="Yjbcp0f1BBSYqEVXcpDD-68" style="edgeStyle=none;rounded=0;orthogonalLoop=1;jettySize=auto;html=1;" parent="1" source="Yjbcp0f1BBSYqEVXcpDD-70" target="Yjbcp0f1BBSYqEVXcpDD-73" edge="1">
          <mxGeometry relative="1" as="geometry" />
        </mxCell>
        <mxCell id="Yjbcp0f1BBSYqEVXcpDD-69" style="edgeStyle=none;rounded=0;orthogonalLoop=1;jettySize=auto;html=1;" parent="1" source="Yjbcp0f1BBSYqEVXcpDD-70" edge="1">
          <mxGeometry relative="1" as="geometry">
            <mxPoint x="414.76" y="2250" as="targetPoint" />
            <Array as="points">
              <mxPoint x="654.76" y="1930" />
              <mxPoint x="654.76" y="2220" />
              <mxPoint x="414.76" y="2220" />
            </Array>
          </mxGeometry>
        </mxCell>
        <mxCell id="Yjbcp0f1BBSYqEVXcpDD-70" value="J = 1, 6" style="shape=hexagon;perimeter=hexagonPerimeter2;whiteSpace=wrap;html=1;fixedSize=1;" parent="1" vertex="1">
          <mxGeometry x="310.64" y="1920" width="194.12" height="20" as="geometry" />
        </mxCell>
        <mxCell id="Yjbcp0f1BBSYqEVXcpDD-71" style="edgeStyle=none;rounded=0;orthogonalLoop=1;jettySize=auto;html=1;exitX=1;exitY=0.5;exitDx=0;exitDy=0;entryX=0.5;entryY=0;entryDx=0;entryDy=0;" parent="1" source="Yjbcp0f1BBSYqEVXcpDD-73" target="Yjbcp0f1BBSYqEVXcpDD-75" edge="1">
          <mxGeometry relative="1" as="geometry">
            <Array as="points">
              <mxPoint x="574.76" y="2010" />
            </Array>
          </mxGeometry>
        </mxCell>
        <mxCell id="Yjbcp0f1BBSYqEVXcpDD-72" style="edgeStyle=none;rounded=0;orthogonalLoop=1;jettySize=auto;html=1;entryX=0;entryY=0.5;entryDx=0;entryDy=0;" parent="1" source="Yjbcp0f1BBSYqEVXcpDD-73" target="Yjbcp0f1BBSYqEVXcpDD-77" edge="1">
          <mxGeometry relative="1" as="geometry">
            <Array as="points">
              <mxPoint x="254.76" y="2010" />
              <mxPoint x="254.76" y="2155" />
            </Array>
          </mxGeometry>
        </mxCell>
        <mxCell id="Yjbcp0f1BBSYqEVXcpDD-73" value="valoresvetorImpares[j] &amp;lt; valoresvetorImpares[indice_min]" style="rhombus;whiteSpace=wrap;html=1;" parent="1" vertex="1">
          <mxGeometry x="291.45" y="1960" width="228.87" height="100" as="geometry" />
        </mxCell>
        <mxCell id="Yjbcp0f1BBSYqEVXcpDD-74" style="edgeStyle=none;rounded=0;orthogonalLoop=1;jettySize=auto;html=1;entryX=1;entryY=0.5;entryDx=0;entryDy=0;" parent="1" source="Yjbcp0f1BBSYqEVXcpDD-75" target="Yjbcp0f1BBSYqEVXcpDD-77" edge="1">
          <mxGeometry relative="1" as="geometry">
            <Array as="points">
              <mxPoint x="574.76" y="2155" />
            </Array>
          </mxGeometry>
        </mxCell>
        <mxCell id="Yjbcp0f1BBSYqEVXcpDD-75" value="indice_min = j" style="rounded=1;whiteSpace=wrap;html=1;" parent="1" vertex="1">
          <mxGeometry x="520.3199999999999" y="2070" width="105.25" height="40" as="geometry" />
        </mxCell>
        <mxCell id="Yjbcp0f1BBSYqEVXcpDD-76" style="edgeStyle=none;rounded=0;orthogonalLoop=1;jettySize=auto;html=1;" parent="1" source="Yjbcp0f1BBSYqEVXcpDD-77" edge="1">
          <mxGeometry relative="1" as="geometry">
            <mxPoint x="304.76" y="1930" as="targetPoint" />
            <Array as="points">
              <mxPoint x="414.76" y="2210" />
              <mxPoint x="214.76" y="2210" />
              <mxPoint x="214.76" y="1930" />
            </Array>
          </mxGeometry>
        </mxCell>
        <mxCell id="Yjbcp0f1BBSYqEVXcpDD-77" value="" style="ellipse;whiteSpace=wrap;html=1;aspect=fixed;" parent="1" vertex="1">
          <mxGeometry x="398.76" y="2140" width="30" height="30" as="geometry" />
        </mxCell>
        <mxCell id="Yjbcp0f1BBSYqEVXcpDD-78" style="edgeStyle=none;rounded=0;orthogonalLoop=1;jettySize=auto;html=1;entryX=0;entryY=0.5;entryDx=0;entryDy=0;" parent="1" source="Yjbcp0f1BBSYqEVXcpDD-79" target="Yjbcp0f1BBSYqEVXcpDD-64" edge="1">
          <mxGeometry relative="1" as="geometry">
            <mxPoint x="214.76" y="1820" as="targetPoint" />
            <Array as="points">
              <mxPoint x="414.76" y="2360" />
              <mxPoint x="134.76" y="2360" />
              <mxPoint x="134.76" y="1820" />
            </Array>
          </mxGeometry>
        </mxCell>
        <mxCell id="Yjbcp0f1BBSYqEVXcpDD-79" value="&lt;div&gt;troca = valoresvetorImpares[i]&lt;/div&gt;&lt;div&gt;&amp;nbsp; &amp;nbsp; &amp;nbsp; &amp;nbsp; valoresvetorImpares[i] = valoresvetorImpares[indice_min]&lt;span style=&quot;&quot;&gt;&lt;/span&gt;&lt;/div&gt;&lt;div&gt;&lt;span style=&quot;&quot;&gt;&lt;span style=&quot;&quot;&gt;&lt;span style=&quot;white-space: pre;&quot;&gt;&amp;nbsp;&amp;nbsp;&amp;nbsp;&amp;nbsp;&lt;/span&gt;&lt;/span&gt;&amp;nbsp; &amp;nbsp; &amp;nbsp; &amp;nbsp; valoresvetorImpares[indice_min] = troca&lt;/span&gt;&lt;/div&gt;" style="rounded=1;whiteSpace=wrap;html=1;" parent="1" vertex="1">
          <mxGeometry x="256.14" y="2250" width="306.75" height="60" as="geometry" />
        </mxCell>
        <mxCell id="Yjbcp0f1BBSYqEVXcpDD-80" value="V" style="text;html=1;align=center;verticalAlign=middle;resizable=0;points=[];autosize=1;strokeColor=none;fillColor=none;" parent="1" vertex="1">
          <mxGeometry x="545" y="1968" width="30" height="30" as="geometry" />
        </mxCell>
        <mxCell id="Yjbcp0f1BBSYqEVXcpDD-81" value="F" style="text;html=1;align=center;verticalAlign=middle;resizable=0;points=[];autosize=1;strokeColor=none;fillColor=none;" parent="1" vertex="1">
          <mxGeometry x="275" y="1968" width="30" height="30" as="geometry" />
        </mxCell>
        <mxCell id="Yjbcp0f1BBSYqEVXcpDD-82" value="V" style="text;html=1;align=center;verticalAlign=middle;resizable=0;points=[];autosize=1;strokeColor=none;fillColor=none;" parent="1" vertex="1">
          <mxGeometry x="515" y="1358" width="30" height="30" as="geometry" />
        </mxCell>
        <mxCell id="Yjbcp0f1BBSYqEVXcpDD-83" value="F" style="text;html=1;align=center;verticalAlign=middle;resizable=0;points=[];autosize=1;strokeColor=none;fillColor=none;" parent="1" vertex="1">
          <mxGeometry x="255" y="1358" width="30" height="30" as="geometry" />
        </mxCell>
        <mxCell id="Yjbcp0f1BBSYqEVXcpDD-85" value="&quot;A matriz[&quot;,LINHA_DA_MATRIZ,&quot;][&quot;, COLUNA_DA_MATRIZ,&quot;]&quot;" style="shape=display;whiteSpace=wrap;html=1;" parent="1" vertex="1">
          <mxGeometry x="210.89" y="2410" width="369.11" height="60" as="geometry" />
        </mxCell>
        <mxCell id="Yjbcp0f1BBSYqEVXcpDD-87" style="edgeStyle=orthogonalEdgeStyle;rounded=0;orthogonalLoop=1;jettySize=auto;html=1;" parent="1" target="Yjbcp0f1BBSYqEVXcpDD-89" edge="1">
          <mxGeometry relative="1" as="geometry">
            <mxPoint x="409" y="2470" as="sourcePoint" />
          </mxGeometry>
        </mxCell>
        <mxCell id="Yjbcp0f1BBSYqEVXcpDD-88" style="edgeStyle=orthogonalEdgeStyle;rounded=0;orthogonalLoop=1;jettySize=auto;html=1;" parent="1" source="Yjbcp0f1BBSYqEVXcpDD-89" target="Yjbcp0f1BBSYqEVXcpDD-91" edge="1">
          <mxGeometry relative="1" as="geometry" />
        </mxCell>
        <mxCell id="Yjbcp0f1BBSYqEVXcpDD-98" style="edgeStyle=none;rounded=0;orthogonalLoop=1;jettySize=auto;html=1;" parent="1" source="Yjbcp0f1BBSYqEVXcpDD-89" edge="1">
          <mxGeometry relative="1" as="geometry">
            <mxPoint x="410" y="2840" as="targetPoint" />
            <Array as="points">
              <mxPoint x="630" y="2520" />
              <mxPoint x="630" y="2800" />
              <mxPoint x="410" y="2800" />
            </Array>
          </mxGeometry>
        </mxCell>
        <mxCell id="Yjbcp0f1BBSYqEVXcpDD-89" value="linhaDaMatriz = 1, 2" style="shape=hexagon;perimeter=hexagonPerimeter2;whiteSpace=wrap;html=1;fixedSize=1;" parent="1" vertex="1">
          <mxGeometry x="322.75" y="2500" width="171.5" height="40" as="geometry" />
        </mxCell>
        <mxCell id="Yjbcp0f1BBSYqEVXcpDD-90" style="edgeStyle=orthogonalEdgeStyle;rounded=0;orthogonalLoop=1;jettySize=auto;html=1;" parent="1" source="Yjbcp0f1BBSYqEVXcpDD-91" target="Yjbcp0f1BBSYqEVXcpDD-92" edge="1">
          <mxGeometry relative="1" as="geometry" />
        </mxCell>
        <mxCell id="Yjbcp0f1BBSYqEVXcpDD-91" value="&quot;Entre com os valores da linha &quot;, linhaDaMatriz+1,&quot; da Matriz&quot;" style="shape=display;whiteSpace=wrap;html=1;" parent="1" vertex="1">
          <mxGeometry x="293.5" y="2560" width="230" height="50" as="geometry" />
        </mxCell>
        <mxCell id="Yjbcp0f1BBSYqEVXcpDD-92" value="colunaDaMatriz=1, 3" style="shape=hexagon;perimeter=hexagonPerimeter2;whiteSpace=wrap;html=1;fixedSize=1;" parent="1" vertex="1">
          <mxGeometry x="322.75" y="2640" width="171.5" height="40" as="geometry" />
        </mxCell>
        <mxCell id="Yjbcp0f1BBSYqEVXcpDD-93" style="edgeStyle=orthogonalEdgeStyle;rounded=0;orthogonalLoop=1;jettySize=auto;html=1;exitX=0;exitY=0.5;exitDx=0;exitDy=0;exitPerimeter=0;" parent="1" source="Yjbcp0f1BBSYqEVXcpDD-97" edge="1">
          <mxGeometry relative="1" as="geometry">
            <mxPoint x="320" y="2660" as="targetPoint" />
            <Array as="points">
              <mxPoint x="290" y="2745" />
              <mxPoint x="290" y="2750" />
              <mxPoint x="240" y="2750" />
              <mxPoint x="240" y="2660" />
            </Array>
            <mxPoint x="290" y="2740" as="sourcePoint" />
          </mxGeometry>
        </mxCell>
        <mxCell id="Yjbcp0f1BBSYqEVXcpDD-94" style="edgeStyle=none;rounded=0;orthogonalLoop=1;jettySize=auto;html=1;" parent="1" edge="1">
          <mxGeometry relative="1" as="geometry">
            <mxPoint x="320" y="2520" as="targetPoint" />
            <mxPoint x="500" y="2660" as="sourcePoint" />
            <Array as="points">
              <mxPoint x="540" y="2660" />
              <mxPoint x="540" y="2730" />
              <mxPoint x="540" y="2790" />
              <mxPoint x="190" y="2790" />
              <mxPoint x="190" y="2520" />
            </Array>
          </mxGeometry>
        </mxCell>
        <mxCell id="Yjbcp0f1BBSYqEVXcpDD-96" style="edgeStyle=orthogonalEdgeStyle;rounded=0;orthogonalLoop=1;jettySize=auto;html=1;entryX=0.497;entryY=0.283;entryDx=0;entryDy=0;entryPerimeter=0;" parent="1" source="Yjbcp0f1BBSYqEVXcpDD-92" edge="1">
          <mxGeometry relative="1" as="geometry">
            <mxPoint x="408.38824999999997" y="2716.98" as="targetPoint" />
          </mxGeometry>
        </mxCell>
        <mxCell id="Yjbcp0f1BBSYqEVXcpDD-97" value="matrizImparPar[linhaDaMatriz][colunaDaMatriz], &quot; &quot;" style="shape=display;whiteSpace=wrap;html=1;" parent="1" vertex="1">
          <mxGeometry x="297.01" y="2720" width="198.25" height="50" as="geometry" />
        </mxCell>
        <mxCell id="Yjbcp0f1BBSYqEVXcpDD-101" style="edgeStyle=none;rounded=0;orthogonalLoop=1;jettySize=auto;html=1;" parent="1" source="Yjbcp0f1BBSYqEVXcpDD-99" target="Yjbcp0f1BBSYqEVXcpDD-100" edge="1">
          <mxGeometry relative="1" as="geometry" />
        </mxCell>
        <mxCell id="Yjbcp0f1BBSYqEVXcpDD-109" style="edgeStyle=none;rounded=0;orthogonalLoop=1;jettySize=auto;html=1;" parent="1" source="Yjbcp0f1BBSYqEVXcpDD-99" edge="1">
          <mxGeometry relative="1" as="geometry">
            <mxPoint x="398.76" y="3160" as="targetPoint" />
            <Array as="points">
              <mxPoint x="658.76" y="2862" />
              <mxPoint x="658.76" y="3130" />
              <mxPoint x="398.76" y="3130" />
            </Array>
          </mxGeometry>
        </mxCell>
        <mxCell id="Yjbcp0f1BBSYqEVXcpDD-99" value="linha = 1, 6, 1" style="shape=hexagon;perimeter=hexagonPerimeter2;whiteSpace=wrap;html=1;fixedSize=1;" parent="1" vertex="1">
          <mxGeometry x="338.28" y="2843" width="120.48" height="37" as="geometry" />
        </mxCell>
        <mxCell id="Yjbcp0f1BBSYqEVXcpDD-106" style="edgeStyle=none;rounded=0;orthogonalLoop=1;jettySize=auto;html=1;entryX=0;entryY=0.5;entryDx=0;entryDy=0;" parent="1" source="Yjbcp0f1BBSYqEVXcpDD-100" target="Yjbcp0f1BBSYqEVXcpDD-103" edge="1">
          <mxGeometry relative="1" as="geometry">
            <Array as="points">
              <mxPoint x="228.76" y="2945" />
              <mxPoint x="228.76" y="3080" />
            </Array>
          </mxGeometry>
        </mxCell>
        <mxCell id="Yjbcp0f1BBSYqEVXcpDD-100" value="valoresvetorImpares[linha]!=0" style="rhombus;whiteSpace=wrap;html=1;" parent="1" vertex="1">
          <mxGeometry x="286.02" y="2910" width="226.24" height="70" as="geometry" />
        </mxCell>
        <mxCell id="Yjbcp0f1BBSYqEVXcpDD-105" style="edgeStyle=none;rounded=0;orthogonalLoop=1;jettySize=auto;html=1;entryX=1;entryY=0.5;entryDx=0;entryDy=0;" parent="1" source="Yjbcp0f1BBSYqEVXcpDD-102" target="Yjbcp0f1BBSYqEVXcpDD-103" edge="1">
          <mxGeometry relative="1" as="geometry">
            <Array as="points">
              <mxPoint x="534.76" y="3080" />
            </Array>
          </mxGeometry>
        </mxCell>
        <mxCell id="Yjbcp0f1BBSYqEVXcpDD-102" value="valoresvetorImpares[linha]" style="shape=display;whiteSpace=wrap;html=1;" parent="1" vertex="1">
          <mxGeometry x="442.52" y="2990" width="184.44" height="50" as="geometry" />
        </mxCell>
        <mxCell id="Yjbcp0f1BBSYqEVXcpDD-107" style="edgeStyle=none;rounded=0;orthogonalLoop=1;jettySize=auto;html=1;entryX=0;entryY=0.5;entryDx=0;entryDy=0;" parent="1" source="Yjbcp0f1BBSYqEVXcpDD-103" target="Yjbcp0f1BBSYqEVXcpDD-99" edge="1">
          <mxGeometry relative="1" as="geometry">
            <mxPoint x="168.76" y="2860" as="targetPoint" />
            <Array as="points">
              <mxPoint x="398.76" y="3120" />
              <mxPoint x="168.76" y="3120" />
              <mxPoint x="168.76" y="2862" />
            </Array>
          </mxGeometry>
        </mxCell>
        <mxCell id="Yjbcp0f1BBSYqEVXcpDD-103" value="" style="ellipse;whiteSpace=wrap;html=1;aspect=fixed;" parent="1" vertex="1">
          <mxGeometry x="378.28" y="3060" width="40" height="40" as="geometry" />
        </mxCell>
        <mxCell id="Yjbcp0f1BBSYqEVXcpDD-108" style="edgeStyle=none;rounded=0;orthogonalLoop=1;jettySize=auto;html=1;entryX=0;entryY=0;entryDx=102.775;entryDy=0;entryPerimeter=0;" parent="1" source="Yjbcp0f1BBSYqEVXcpDD-100" target="Yjbcp0f1BBSYqEVXcpDD-102" edge="1">
          <mxGeometry relative="1" as="geometry">
            <Array as="points">
              <mxPoint x="545.76" y="2945" />
            </Array>
          </mxGeometry>
        </mxCell>
        <mxCell id="Yjbcp0f1BBSYqEVXcpDD-110" style="edgeStyle=none;rounded=0;orthogonalLoop=1;jettySize=auto;html=1;" parent="1" source="Yjbcp0f1BBSYqEVXcpDD-112" target="Yjbcp0f1BBSYqEVXcpDD-114" edge="1">
          <mxGeometry relative="1" as="geometry" />
        </mxCell>
        <mxCell id="Yjbcp0f1BBSYqEVXcpDD-111" style="edgeStyle=none;rounded=0;orthogonalLoop=1;jettySize=auto;html=1;" parent="1" source="Yjbcp0f1BBSYqEVXcpDD-112" edge="1">
          <mxGeometry relative="1" as="geometry">
            <mxPoint x="394.52" y="3477" as="targetPoint" />
            <Array as="points">
              <mxPoint x="654.52" y="3179" />
              <mxPoint x="654.52" y="3447" />
              <mxPoint x="394.52" y="3447" />
            </Array>
          </mxGeometry>
        </mxCell>
        <mxCell id="Yjbcp0f1BBSYqEVXcpDD-112" value="linha = 1, 6, 1" style="shape=hexagon;perimeter=hexagonPerimeter2;whiteSpace=wrap;html=1;fixedSize=1;" parent="1" vertex="1">
          <mxGeometry x="334.03999999999996" y="3160" width="120.48" height="37" as="geometry" />
        </mxCell>
        <mxCell id="Yjbcp0f1BBSYqEVXcpDD-113" style="edgeStyle=none;rounded=0;orthogonalLoop=1;jettySize=auto;html=1;entryX=0;entryY=0.5;entryDx=0;entryDy=0;" parent="1" source="Yjbcp0f1BBSYqEVXcpDD-114" target="Yjbcp0f1BBSYqEVXcpDD-118" edge="1">
          <mxGeometry relative="1" as="geometry">
            <Array as="points">
              <mxPoint x="224.51999999999998" y="3262" />
              <mxPoint x="224.51999999999998" y="3397" />
            </Array>
          </mxGeometry>
        </mxCell>
        <mxCell id="Yjbcp0f1BBSYqEVXcpDD-114" value="valoresVetorPares[linha]!=0" style="rhombus;whiteSpace=wrap;html=1;" parent="1" vertex="1">
          <mxGeometry x="281.78" y="3227" width="226.24" height="70" as="geometry" />
        </mxCell>
        <mxCell id="Yjbcp0f1BBSYqEVXcpDD-115" style="edgeStyle=none;rounded=0;orthogonalLoop=1;jettySize=auto;html=1;entryX=1;entryY=0.5;entryDx=0;entryDy=0;" parent="1" source="Yjbcp0f1BBSYqEVXcpDD-116" target="Yjbcp0f1BBSYqEVXcpDD-118" edge="1">
          <mxGeometry relative="1" as="geometry">
            <Array as="points">
              <mxPoint x="530.52" y="3397" />
            </Array>
          </mxGeometry>
        </mxCell>
        <mxCell id="Yjbcp0f1BBSYqEVXcpDD-116" value="valoresVetorPares[linha]" style="shape=display;whiteSpace=wrap;html=1;" parent="1" vertex="1">
          <mxGeometry x="438.28" y="3307" width="184.44" height="50" as="geometry" />
        </mxCell>
        <mxCell id="Yjbcp0f1BBSYqEVXcpDD-117" style="edgeStyle=none;rounded=0;orthogonalLoop=1;jettySize=auto;html=1;entryX=0;entryY=0.5;entryDx=0;entryDy=0;" parent="1" source="Yjbcp0f1BBSYqEVXcpDD-118" target="Yjbcp0f1BBSYqEVXcpDD-112" edge="1">
          <mxGeometry relative="1" as="geometry">
            <mxPoint x="164.51999999999998" y="3177" as="targetPoint" />
            <Array as="points">
              <mxPoint x="394.52" y="3437" />
              <mxPoint x="164.51999999999998" y="3437" />
              <mxPoint x="164.51999999999998" y="3179" />
            </Array>
          </mxGeometry>
        </mxCell>
        <mxCell id="Yjbcp0f1BBSYqEVXcpDD-118" value="" style="ellipse;whiteSpace=wrap;html=1;aspect=fixed;" parent="1" vertex="1">
          <mxGeometry x="374.03999999999996" y="3377" width="40" height="40" as="geometry" />
        </mxCell>
        <mxCell id="Yjbcp0f1BBSYqEVXcpDD-119" style="edgeStyle=none;rounded=0;orthogonalLoop=1;jettySize=auto;html=1;entryX=0;entryY=0;entryDx=102.775;entryDy=0;entryPerimeter=0;" parent="1" source="Yjbcp0f1BBSYqEVXcpDD-114" target="Yjbcp0f1BBSYqEVXcpDD-116" edge="1">
          <mxGeometry relative="1" as="geometry">
            <Array as="points">
              <mxPoint x="541.52" y="3262" />
            </Array>
          </mxGeometry>
        </mxCell>
        <mxCell id="Yjbcp0f1BBSYqEVXcpDD-120" value="Fim" style="ellipse;whiteSpace=wrap;html=1;" parent="1" vertex="1">
          <mxGeometry x="340" y="3480" width="111.13" height="50" as="geometry" />
        </mxCell>
      </root>
    </mxGraphModel>
  </diagram>
</mxfile>
